<svg xmlns="http://www.w3.org/2000/svg" viewBox="0 0 50 150" width="50" height="150">
  <!-- Outer border -->
  <rect x="0" y="0" width="50" height="150" rx="3" fill="none" stroke="#4a3728" stroke-width="1.5"/>

  <!-- Morning box (top) -->
  <rect x="0" y="0" width="50" height="50" fill="#fff8e7" stroke="#4a3728" stroke-width="0.75"/>
  <!-- Rising sun icon -->
  <path d="M25 38 L8 38 A17 17 0 0 1 42 38 Z" fill="#f59e0b" stroke="#4a3728" stroke-width="0.75"/>
  <line x1="25" y1="10" x2="25" y2="16" stroke="#f59e0b" stroke-width="2.5" stroke-linecap="round"/>
  <line x1="12" y1="18" x2="16" y2="22" stroke="#f59e0b" stroke-width="2.5" stroke-linecap="round"/>
  <line x1="38" y1="18" x2="34" y2="22" stroke="#f59e0b" stroke-width="2.5" stroke-linecap="round"/>
  <line x1="5" y1="28" x2="11" y2="28" stroke="#f59e0b" stroke-width="2.5" stroke-linecap="round"/>
  <line x1="39" y1="28" x2="45" y2="28" stroke="#f59e0b" stroke-width="2.5" stroke-linecap="round"/>

  <!-- Afternoon box (middle) -->
  <rect x="0" y="50" width="50" height="50" fill="#fff8e7" stroke="#4a3728" stroke-width="0.75"/>
  <!-- Full sun icon -->
  <circle cx="25" cy="75" r="12" fill="#f59e0b" stroke="#4a3728" stroke-width="0.75"/>
  <line x1="25" y1="55" x2="25" y2="61" stroke="#f59e0b" stroke-width="2.5" stroke-linecap="round"/>
  <line x1="25" y1="89" x2="25" y2="95" stroke="#f59e0b" stroke-width="2.5" stroke-linecap="round"/>
  <line x1="5" y1="75" x2="11" y2="75" stroke="#f59e0b" stroke-width="2.5" stroke-linecap="round"/>
  <line x1="39" y1="75" x2="45" y2="75" stroke="#f59e0b" stroke-width="2.5" stroke-linecap="round"/>
  <line x1="11" y1="61" x2="15" y2="65" stroke="#f59e0b" stroke-width="2.5" stroke-linecap="round"/>
  <line x1="35" y1="85" x2="39" y2="89" stroke="#f59e0b" stroke-width="2.5" stroke-linecap="round"/>
  <line x1="39" y1="61" x2="35" y2="65" stroke="#f59e0b" stroke-width="2.5" stroke-linecap="round"/>
  <line x1="15" y1="85" x2="11" y2="89" stroke="#f59e0b" stroke-width="2.5" stroke-linecap="round"/>

  <!-- Night box (bottom) -->
  <rect x="0" y="100" width="50" height="50" fill="#1e293b" stroke="#4a3728" stroke-width="0.75"/>
  <!-- Moon icon - larger crescent -->
  <circle cx="20" cy="125" r="14" fill="#fcd34d"/>
  <circle cx="28" cy="120" r="12" fill="#1e293b"/>
  <!-- Stars -->
  <circle cx="38" cy="112" r="2" fill="#fcd34d"/>
  <circle cx="45" cy="125" r="1.5" fill="#fcd34d"/>
  <circle cx="40" cy="138" r="2" fill="#fcd34d"/>
  <circle cx="32" cy="108" r="1" fill="#fcd34d"/>
  <circle cx="8" cy="110" r="1.5" fill="#fcd34d"/>
  <circle cx="5" cy="140" r="1" fill="#fcd34d"/>
</svg>
